<?xml version="1.0" encoding="UTF-8"?>
<!DOCTYPE svg PUBLIC "-//W3C//DTD SVG 1.1//EN" "http://www.w3.org/Graphics/SVG/1.1/DTD/svg11.dtd">
<!-- Creator: CorelDRAW 2021 (64-Bit) -->
<svg xmlns="http://www.w3.org/2000/svg" xml:space="preserve" width="202.723mm" height="242.882mm" version="1.1" style="shape-rendering:geometricPrecision; text-rendering:geometricPrecision; image-rendering:optimizeQuality; fill-rule:evenodd; clip-rule:evenodd"
viewBox="0 0 2692.45 3225.82"
 xmlns:xlink="http://www.w3.org/1999/xlink"
 xmlns:xodm="http://www.corel.com/coreldraw/odm/2003">
 <defs>
  <style type="text/css">
   <![CDATA[
    .fil23 {fill:#9A1032}
    .fil22 {fill:#9A1032;fill-rule:nonzero}
    .fil5 {fill:#9A9794;fill-rule:nonzero}
    .fil1 {fill:#ACA9A6;fill-rule:nonzero}
    .fil4 {fill:#BBB8B5;fill-rule:nonzero}
    .fil2 {fill:#BCBAB7;fill-rule:nonzero}
    .fil3 {fill:#CCC9C6;fill-rule:nonzero}
    .fil12 {fill:#D2CFCB;fill-rule:nonzero}
    .fil7 {fill:#DAD7D3;fill-rule:nonzero}
    .fil13 {fill:#DEDBD7;fill-rule:nonzero}
    .fil16 {fill:#E1DEDA;fill-rule:nonzero}
    .fil15 {fill:#E7E4E0;fill-rule:nonzero}
    .fil10 {fill:#EBE7E3;fill-rule:nonzero}
    .fil6 {fill:#EFECE8;fill-rule:nonzero}
    .fil14 {fill:#F2EFEA;fill-rule:nonzero}
    .fil9 {fill:#F6F2EE;fill-rule:nonzero}
    .fil11 {fill:#FFFBF7;fill-rule:nonzero}
    .fil0 {fill:white;fill-rule:nonzero}
    .fil8 {fill:url(#id0)}
    .fil21 {fill:url(#id1)}
    .fil17 {fill:url(#id2)}
    .fil20 {fill:url(#id3)}
    .fil18 {fill:url(#id4)}
    .fil19 {fill:url(#id5)}
   ]]>
  </style>
  <linearGradient id="id0" gradientUnits="userSpaceOnUse" x1="1046.41" y1="219.66" x2="1325.47" y2="45.1">
   <stop offset="0" style="stop-opacity:1; stop-color:#FAF6F2"/>
   <stop offset="1" style="stop-opacity:1; stop-color:#FFFBF7"/>
  </linearGradient>
  <linearGradient id="id1" gradientUnits="userSpaceOnUse" x1="1097.86" y1="834.54" x2="1919.36" y2="2673.13">
   <stop offset="0" style="stop-opacity:1; stop-color:#791426"/>
   <stop offset="0.529412" style="stop-opacity:1; stop-color:#AF1C3B"/>
   <stop offset="1" style="stop-opacity:1; stop-color:#791426"/>
  </linearGradient>
  <linearGradient id="id2" gradientUnits="userSpaceOnUse" xlink:href="#id1" x1="1046.81" y1="270.24" x2="860.06" y2="592.56">
  </linearGradient>
  <linearGradient id="id3" gradientUnits="userSpaceOnUse" xlink:href="#id1" x1="1107.83" y1="2878.34" x2="1812.42" y2="1204.69">
  </linearGradient>
  <linearGradient id="id4" gradientUnits="userSpaceOnUse" xlink:href="#id1" x1="1011.37" y1="249.69" x2="824.6" y2="572.04">
  </linearGradient>
  <linearGradient id="id5" gradientUnits="userSpaceOnUse" xlink:href="#id1" x1="1103.14" y1="302.88" x2="916.38" y2="625.19">
  </linearGradient>
 </defs>
 <g id="Layer_x0020_1">
  <metadata id="CorelCorpID_0Corel-Layer"/>
  <g id="_2519439094272">
   <path class="fil0" d="M1786.96 267.87c-5.07,-9.74 -23.87,-45 -30.33,-57.06 -1.22,-2.24 -2.02,-3.7 -2.21,-4.03 -82.05,-150.67 -84.83,-122.12 -136.05,-131.19 -1.9,-0.33 -3.88,-0.83 -5.77,-1.31 -58.35,-13.45 -158.62,-51.43 -207.59,-69.43 -50.63,-18.53 -183.85,21.34 -269.83,29.8 -21.88,2.11 -38.83,6.14 -52.36,11.41 -39.53,15.35 -49.36,41.42 -65.7,62.78 -9.54,12.51 -16.2,16.29 -25.06,18.38 -0.17,0.03 -0.41,0.03 -0.53,0.09 -66.89,23.99 -224.93,218.94 -190.79,487.97 2.45,26.4 7.99,52.11 15.11,77.29 65.34,258.18 284.01,604.44 337.7,702.71 -39.56,91.06 -124.01,278.02 -150.95,454.12 -1.09,5.96 -7.62,46.42 -8.04,80.38 -3.57,89.5 13.21,171.42 65.1,230.24 0.34,0.36 10.2,10.93 10.64,11.41 26.55,26.17 57.84,42.79 89.33,52.77 44.58,19.19 78.48,8.45 111.29,2.89 14.64,8.87 29.94,15.73 45.53,21.07 93.8,32.42 198.75,6.41 247.9,-21.07 65.94,-21.42 96.01,-60.13 114.83,-120.14 18.99,-56.53 48.03,-171.86 -17.73,-342.56 -29.52,-73.72 -88.94,-189.09 -180.47,-356.78l-0.59 -0.98c73.38,-138.87 269.87,-482.51 304.86,-582.92 1.92,-5.3 3.55,-10.42 5.19,-15.55 59.42,-152.02 98.22,-353.11 -3.49,-540.28zm-479.74 845.34c-74.31,-124.73 -142.93,-240.19 -186.97,-351.05 -14.6,-44.97 -26.08,-89.25 -33.17,-131.67 -24.96,-121.44 -14.54,-192.78 31.86,-291.08 0.97,-2.06 2.03,-4.17 3.1,-6.28 22.07,-12.61 52.5,-24.34 87.36,-27.78 77.68,-7.65 209.58,12.04 260.03,153.93 53.22,149.9 -60.39,442.16 -162.2,653.93z"/>
   <path class="fil1" d="M1251.45 1578.87c-21.18,-40.85 -67.55,-129.86 -77.44,-151.01 -107.74,209.94 -134.32,443.09 -136.02,510.85 1.14,52.09 0,131.08 73.65,164.71 97.74,-133.1 -73.65,-331.96 139.8,-524.55z"/>
   <path class="fil1" d="M1498.79 878.73c25.21,-125.17 88.05,-231.9 8.26,-405.88 -65.74,-143.22 -178.87,-194.47 -297.69,-167.48l0.03 0c77.73,-7.65 209.68,11.99 260.06,153.92 53.21,149.91 -60.39,442.17 -162.21,653.93 -2.32,4.98 -4.86,9.96 -7.24,14.91 49.5,85.9 89.99,159.82 138.32,247.12 0,0 65.13,-105.12 92.19,-152.73 -55.48,-128.55 -47.44,-265.82 -31.71,-343.79z"/>
   <path class="fil2" d="M1807.52 470.49c-0.07,-4.32 -0.07,-8.74 -0.15,-12.87l0 -0.71c-0.03,-1.88 -0.12,-3.55 -0.12,-5.39 -0.69,-18.75 -2,-34.95 -3.79,-48.36 -1.91,-13.2 -4.2,-23.02 -6.31,-30.06 -9.42,-28.21 -32,-61.94 -57.87,-94.39 -50.59,-63.49 -113.74,-121.83 -115.72,-123.68 -3.99,1.76 -8.07,3.88 -12.31,6.32 -53.96,32.3 -52.7,76.15 -240.11,-13.58 -28.3,-13.57 -72.55,-4.98 -97.3,-3.34 189.46,140.72 397.41,134.71 533.68,326.09z"/>
   <path class="fil3" d="M1662.14 1000.15c7.24,-10.93 13.79,-21.09 19.66,-30.33 7.02,-11.47 13.65,-23.21 19.94,-35.09 2.87,-5.39 5.64,-10.84 8.35,-16.33 76.93,-154.85 98.5,-335.53 97.4,-447.92 -96.42,-280.14 -377.54,-155.21 -467.59,-329.87 -1.48,0.1 -68.91,4.03 -70.34,4.17 4.4,5.64 8.97,11.18 13.76,16.73 35.7,40.76 119.3,123.47 209.24,144.56 89.99,21.13 165.41,34.23 241.34,147.31 75.92,113.16 -4.82,272.6 -75.93,429.18 -28.36,62.45 -31.2,125.2 -35.32,187.14 11.55,-15.97 14.05,-34.56 27.76,-52.98 3.99,-5.43 7.89,-10.95 11.74,-16.56z"/>
   <path class="fil4" d="M1733.9 453.41c-75.95,-113.14 -151.36,-126.25 -241.34,-147.34 -89.94,-21.08 -173.54,-103.84 -209.23,-144.6 -4.79,-5.49 -9.35,-11.09 -13.76,-16.66 -62.04,6.05 -111.8,55.75 -145.38,126.9 -11.53,24.46 -21.19,51.43 -28.77,79.98 24.84,-21.52 66.89,-41.72 114,-46.31 118.76,-27.02 231.97,24.23 297.65,167.51 79.82,173.91 16.95,280.7 -8.28,405.83 -15.73,77.97 -23.74,215.23 31.71,343.78 19.28,-33.94 40.11,-80.86 92.17,-152.76 4.13,-62 6.94,-124.76 35.3,-187.15 71.13,-156.6 151.84,-316.08 75.95,-429.17z"/>
   <g>
    <image x="1093.07" y="140.43" width="709.12" height="1204.61" xlink:href="FIFA World Cup Qatar 2022_Images\FIFA World Cup Qatar 2022_ImgID1.png"/>
   </g>
   <path class="fil5" d="M1195.54 1405.92c-83.88,116.98 -212.62,742.15 -25.45,720.25 293.84,-41.15 64.39,-640.52 25.45,-720.25z"/>
   <g>
    <image x="1093.07" y="140.43" width="720.33" height="1235.49" xlink:href="FIFA World Cup Qatar 2022_Images\FIFA World Cup Qatar 2022_ImgID2.png"/>
   </g>
   <g>
    <image x="1093.07" y="216.25" width="655.86" height="1819.54" xlink:href="FIFA World Cup Qatar 2022_Images\FIFA World Cup Qatar 2022_ImgID3.png"/>
   </g>
   <g>
    <image x="1149.12" y="238.71" width="490.49" height="1752.15" xlink:href="FIFA World Cup Qatar 2022_Images\FIFA World Cup Qatar 2022_ImgID4.png"/>
   </g>
   <g>
    <image x="997.77" y="1384.35" width="350.35" height="755.33" xlink:href="FIFA World Cup Qatar 2022_Images\FIFA World Cup Qatar 2022_ImgID5.png"/>
   </g>
   <g>
    <image x="1093.07" y="123.59" width="714.72" height="1243.92" xlink:href="FIFA World Cup Qatar 2022_Images\FIFA World Cup Qatar 2022_ImgID6.png"/>
   </g>
   <g>
    <image x="1017.39" y="137.62" width="796" height="2002.06" xlink:href="FIFA World Cup Qatar 2022_Images\FIFA World Cup Qatar 2022_ImgID7.png"/>
   </g>
   <g>
    <image x="1121.1" y="278.02" width="386.79" height="873.27" xlink:href="FIFA World Cup Qatar 2022_Images\FIFA World Cup Qatar 2022_ImgID8.png"/>
   </g>
   <path class="fil6" d="M1786.96 267.86c-5.07,-9.71 -23.84,-44.93 -30.33,-57.06 -1.22,-2.26 -2.02,-3.72 -2.21,-4.06 -82.05,-150.64 -84.83,-122.04 -136.1,-131.1 -1.82,-0.33 -3.82,-0.89 -5.72,-1.33 -58.35,-13.41 -158.67,-51.46 -207.65,-69.4 -50.56,-18.56 -183.79,21.27 -269.77,29.7 -21.93,2.18 -38.83,6.17 -52.36,11.41 -39.53,15.38 -49.36,41.45 -65.7,62.81 -9.54,12.48 -16.27,16.32 -25.09,18.35 -0.14,0.06 -0.38,0.06 -0.5,0.15 -66.89,23.96 -224.93,218.94 -190.79,487.9 2.38,26.4 7.99,52.15 15.08,77.36 65.37,258.15 284.04,604.47 337.73,702.68 -39.56,91.08 -124.01,278.03 -150.95,454.09 -1.09,5.94 -7.62,46.51 -8.04,80.34l0 0.07c-3.61,89.51 13.14,171.48 65.1,230.26 0.34,0.33 10.2,10.93 10.68,11.42 26.49,26.1 57.8,42.78 89.33,52.78 44.54,19.16 78.45,8.41 111.2,2.8 14.69,8.94 29.99,15.73 45.62,21.1 93.76,32.45 198.71,6.38 247.87,-21.1 65.94,-21.39 95.94,-60.1 114.83,-120.08 18.99,-56.48 48.03,-171.88 -17.7,-342.55 -29.59,-73.75 -88.97,-189.14 -180.51,-356.8l-0.59 -0.99c73.35,-138.88 269.84,-482.49 304.9,-582.93 1.88,-5.27 3.52,-10.39 5.15,-15.49 59.42,-152.05 98.22,-353.19 -3.49,-540.35zm-604.29 1845.7c-11.23,1.75 -21.99,2.06 -32.27,0.98 -17,-2.26 -34.05,-8.94 -50.36,-20.18 -22.82,-15.73 -39.77,-38.97 -48.51,-65.28 -26.49,-79.34 -20.94,-237.19 120.76,-594.65 14.75,32.12 28.63,62.33 34.75,74.73 81.99,165.93 101.69,318.13 101.77,409.01 -8.84,114.38 -63.97,183.75 -126.15,195.4zm260.33 -768.56c-8.16,-13.67 -13.02,-21.18 -13.04,-21.22 -3.08,-5.19 -5.97,-10.1 -8.95,-15.07 -112.98,-203.15 -234.63,-380.05 -300.78,-546.55 -14.57,-44.96 -26.04,-89.27 -33.17,-131.64 -24.93,-121.5 -14.51,-192.84 31.89,-291.1 44.6,-94.57 179.49,-212.59 254.96,-176.45 162.74,77.92 184.4,40.31 223.64,8.31 1.22,-0.92 4.29,-3.19 5.54,-4.35 0.86,-0.65 5.85,-3.88 6.68,-4.47 426.68,327.96 -30.72,961.83 -166.77,1182.53z"/>
   <path class="fil7" d="M1610.2 1080.37c-6.17,9.95 -21.9,33.49 -41.48,62.51 -48.81,82.57 -95.19,152.59 -125.68,202.05 9.93,16 32.03,52.02 41.48,69.19 -1.23,-2.18 -2.36,-4.29 -3.53,-6.5l-0.62 -0.99c4.7,-8.87 9.96,-18.65 15.61,-29.17 0.22,-55.83 95.19,-253.71 114.21,-297.09z"/>
   <path class="fil4" d="M1404.34 41.79c-36.02,-19.31 -82,-17.76 -125.83,-10.1 -13.38,2.36 -45.35,8.5 -45.35,8.5 0,0 64.62,15.87 116.23,34.11 33.25,12.72 89.03,34.26 156.25,-1.19l1.26 -2.89c-30.99,-3.31 -68.32,-10.07 -102.55,-28.43z"/>
   <path class="fil8" d="M1194.04 57.06c-14.79,5.87 -27.72,11.02 -36.9,16.1 -121.26,67.25 -155.7,133.81 -161.45,139.2 -3.46,23.42 -8.77,41.38 -11.39,69.87 22.44,11.56 131.22,-9.62 203.53,-66.56 8.97,-7.51 18.41,-14.69 28.25,-21.52 3.81,-2.94 7.3,-4.73 10.22,-6.94 0.48,-0.17 0.9,-1.09 1.35,-1.29 41.34,-36.94 90.01,-127.52 135.51,-105.13 3.63,1.78 7.23,3.42 10.75,4.9 -5.37,-3.1 -10.75,-6.16 -16.2,-9.11 -32.61,-17.49 -67.1,-30.25 -104.59,-30.25 -18.86,0 -38.52,3.25 -59.07,10.73z"/>
   <path class="fil9" d="M1014.72 132.22c-5.39,13.43 -9.86,26.39 -12.9,43.03 -2.11,11.41 -4.15,23.86 -6.11,37.18 76.46,-94.87 153.51,-135.46 161.5,-139.24 8.93,-4.41 33.48,-21.25 44.39,-24.85 -82.95,22.51 -129.26,56.32 -178.8,71.31 -2.21,2 -6.8,9.42 -8.08,12.58z"/>
   <path class="fil10" d="M1420.94 165.1c-126.75,-71.07 -192.09,19.3 -192.12,19.33 -0.39,0.12 -0.77,1.37 -1.14,1.53 -45.04,40.28 -90.13,96.41 -108.78,153.48 44.66,-94.6 179.55,-212.62 255.02,-176.46 178.48,85.43 187.44,32.18 235.86,-0.51 -35.37,21.37 -64.62,72.23 -188.85,2.63z"/>
   <path class="fil11" d="M1597.32 168.77c-83.2,34.8 -139.36,-33.39 -223.38,-83.04 -3.55,-1.55 -7.12,-3.13 -10.76,-4.98 -58.37,-29.08 -156.6,125.11 -156.36,124.99 18.77,-13.82 87.39,-111.7 214.14,-40.65 124.19,69.61 142.71,30.06 176.46,6.29 1.7,-1.16 12.4,-8.91 12.4,-8.91 0,0 -10.8,4.98 -12.4,6.24l-0.09 0.06z"/>
   <path class="fil6" d="M1187.84 215.67c-72.38,55.02 -181.1,78.09 -203.51,66.59 -9.86,108.73 -33.51,249.3 -9.44,408.14 10.51,69.37 24.58,143.19 36.25,216.25 -29.67,-233.35 -35.96,-513.5 176.69,-690.98z"/>
   <path class="fil6" d="M1082.83 46.06c-39.53,15.37 -49.37,41.42 -65.7,62.77 -9.6,12.52 -16.27,16.37 -25.09,18.39 6.05,-1.29 13.21,-2.98 21.34,-4.98 22.08,-5.54 40.79,-13.74 62.69,-23.39 20.11,-8.87 42.88,-18.94 72.12,-30.86 16.24,-6.62 50.56,-19.11 68.64,-23.99 18.32,-4.98 65.94,-13.08 68.53,-13.58 0,0 18.29,-2.36 24.23,-3.25 -1.7,0.12 -201.48,11.53 -226.75,18.89z"/>
   <g>
    <image x="989.36" y="22.5" width="325.13" height="106.7" xlink:href="FIFA World Cup Qatar 2022_Images\FIFA World Cup Qatar 2022_ImgID9.png"/>
   </g>
   <path class="fil12" d="M1592.45 2178.19c-1.97,4.13 -3.52,7.74 -5.54,11.32 -6.94,13.62 -14.48,26.25 -22.56,37.57 66.33,-21.59 96.01,-59.51 114.84,-120.15 -70.27,73.77 -86.74,71.25 -86.74,71.25z"/>
   <path class="fil13" d="M1438.33 2198.41c-52.84,-23.15 -95.29,22.27 -121.83,49.79 93.78,32.39 198.71,6.34 247.9,-21.15 8.01,-11.29 15.58,-23.91 22.53,-37.52 -27.74,46.12 -97.49,31.29 -148.59,8.88z"/>
   <path class="fil10" d="M1275.96 2119.75c26.76,-52.67 40.94,-148.11 32.86,-201.56 -8.96,114.02 -64.08,183.72 -126.12,195.37 -11.24,1.79 -22.05,2.06 -32.27,0.99 -17.04,-2.26 -34.06,-8.92 -50.41,-20.15 -2.72,-1.88 -5.3,-3.91 -7.87,-5.96 -47.35,-14.08 -85.46,-54.19 -96.65,-103.3 -0.09,-0.5 -0.3,-0.92 -0.39,-1.4 0.48,7.99 1.22,15.93 2.18,23.78l0.17 1.69c2.92,23.72 7.84,46.48 15.17,67.91 52.17,94.48 202.32,162.77 263.34,42.63z"/>
   <path class="fil14" d="M1182.68 2113.55c-11.23,1.79 -21.98,2.06 -32.27,0.98 -16.98,-2.26 -34.05,-8.9 -50.36,-20.14 -12.48,-8.63 -23.24,-19.47 -31.88,-31.94 -42.81,-44.33 -66.41,-123.4 -70.2,-177.1l-0.15 -1.97 0 0.03 0 -0.03 0 0.09c-1.6,14.26 -3.07,30.96 -3.24,46.3l0 0.06c-1.32,32.51 0.09,64 4.85,93.8 0.18,0.54 0.27,1.11 0.36,1.73 47.4,90.14 178.96,180.02 266.53,28.22 -22.77,33.58 -52.33,54.1 -83.65,59.97z"/>
   <path class="fil15" d="M1754.45 206.76c-82.05,-150.67 -84.82,-122.1 -136.1,-131.13 -69.43,3.73 -147.01,52.18 -244.41,10.1 137.08,82.06 252.55,-94.96 382.4,124.52 0.09,0.18 1.6,3.04 1.72,3.22 -0.57,-0.99 -0.99,-1.88 -1.46,-2.65 -1.16,-2.26 -1.96,-3.73 -2.14,-4.06z"/>
   <g>
    <image x="1373.35" y="81.47" width="386.79" height="131.97" xlink:href="FIFA World Cup Qatar 2022_Images\FIFA World Cup Qatar 2022_ImgID10.png"/>
   </g>
   <path class="fil3" d="M1159.67 2224.22c34.48,-21.53 63.88,-51.65 87.27,-86.61 -65.17,59.88 -206.25,40.46 -247.68,-115.1 8.3,52.59 27.14,99.81 60.42,137.49 0.33,0.39 10.18,10.98 10.66,11.42 26.49,26.17 57.8,42.78 89.33,52.79z"/>
   <path class="fil14" d="M1404.98 4.89c-50.6,-18.56 -183.79,21.34 -269.8,29.73 -21.9,2.14 -38.86,6.21 -52.33,11.41 50.87,-11.05 54.39,-0.05 203.39,-16.71 0.75,-0.12 19.54,-1.94 24.34,-2.2 33.49,-2.18 66.51,0.09 93.73,14.69 34.24,18.33 66.54,26.07 97.55,29.4 38.59,4.11 75.18,1.32 110.7,3.11 -58.28,-13.45 -158.62,-51.49 -207.59,-69.43z"/>
   <g>
    <image x="1081.86" y="0.04" width="535.34" height="75.81" xlink:href="FIFA World Cup Qatar 2022_Images\FIFA World Cup Qatar 2022_ImgID11.png"/>
   </g>
   <path class="fil10" d="M1501.85 71.19l-4.05 2.06c-55.54,29.97 -106.85,16.06 -140.07,3.34 5.42,2.91 10.87,5.95 16.18,9.17 97.4,42.07 174.98,-6.44 244.42,-10.15 -1.82,-0.33 -3.82,-0.84 -5.73,-1.31 -35.51,-1.8 -72.1,1.04 -110.75,-3.11z"/>
   <path class="fil11" d="M1610.2 1771.46c-63.08,-278.32 -200.33,-459.55 -321.2,-608.01 -102.62,-125.91 -158.43,-261.72 -184.11,-384.61 2.53,28.19 4.86,57.75 6.75,87.84 23.39,170.7 87.03,373.46 274.27,602.88 170.14,208.42 206.16,236.85 224.28,301.9z"/>
   <path class="fil10" d="M1759.79 216.7c0,0.06 1.97,4.56 1.97,4.56 0.48,1.08 11.79,27.8 12.22,28.85 31.6,74.18 -1.08,135.3 -7.34,145.82 45.63,161.4 -2.2,346.07 -76.27,513.94 -32.28,73.53 -31.08,139.43 -40.43,185.92 0.08,-0.24 0.24,-0.48 0.33,-0.65 61.52,-113.79 117.79,-222.01 135.03,-271.41 1.88,-5.3 3.52,-10.42 5.16,-15.54 59.38,-152.02 98.21,-353.14 -3.44,-540.29 -4.44,-8.46 -19.17,-36.11 -27.21,-51.19z"/>
   <path class="fil13" d="M1609.79 162.49c44.92,34.56 76.12,75.32 102.88,115.82 -9.08,-64.2 -25.3,-127.94 -79.01,-122.49 -6.77,0.75 -13.06,1.97 -19.5,4.65 -0.2,0.06 -0.77,-0.8 -4.37,2.03z"/>
   <path class="fil3" d="M1775.36 248.73c-0.41,-1.04 -31.93,-46.77 -49.87,-65.05 -19.73,-21.36 -48.33,-34.08 -73.37,-33.43 -23.06,0.6 -32.12,6.77 -39.26,10.28 -1.14,0.5 -2.45,1.55 -3.04,1.96 76.88,-22.07 91.54,52.26 102.89,115.76 24.69,37.4 42.42,76.85 53.95,117.84 4.39,-8.23 37.06,-74.33 8.71,-147.37z"/>
   <path class="fil12" d="M1316.48 2248.17c33.4,-27.29 60.9,-57.06 96.09,-55.9 -25.33,-1.07 -119.81,19.21 -141.71,34.8 14.72,8.87 30.04,15.74 45.62,21.1z"/>
   <path class="fil6" d="M1639.39 1960.28c-0.99,-25.98 -3.9,-51.69 -8.7,-76.54 -9.56,-49.52 -26.93,-95.62 -53.66,-133.34 -98.53,-138.97 -334.69,-395.19 -395.95,-594.77 17.79,125.1 -12.55,275.55 37.57,349.44 17.05,21.96 33.52,43.62 49.25,64.84 120.19,143.44 260.09,226.62 255.68,430.1 -2.36,107.8 -38.62,146.27 -91.63,195.96 2.05,0.69 4.18,1.49 6.38,2.45 51.15,22.3 120.85,37.23 148.55,-8.88 35.79,-69.99 56.17,-134.79 52.5,-229.25z"/>
   <path class="fil15" d="M1532.78 2017.25c31.79,-261.7 -119.3,-401.89 -263.25,-566.84 -16.65,-18.53 -64.75,-39.63 -45.89,3.81 81.26,127.73 135.45,251.64 148.33,303.2 75.88,304.25 -7.48,400.48 -101.07,469.67 21.87,-15.62 116.39,-35.9 141.65,-34.8 6.19,0.18 12.63,1.34 19.4,3.67 43.11,-40.47 73.16,-61.74 90.16,-126.16 2.4,-8.94 4.56,-18.89 6.73,-29.88 1.4,-7.1 2.95,-14.6 3.93,-22.68z"/>
   <path class="fil14" d="M1421.77 1825.98c-35.13,-140.69 -118.41,-360.32 -266.2,-552.08 -2.26,6.85 -15.32,48.24 -26.13,79.01 9.83,16.97 18.06,31.26 24.11,42.35 7.59,14.72 12.48,24.94 18.74,39.19 14.74,32.12 28.67,62.33 34.74,74.72 82.03,165.93 101.7,318.1 101.79,409.01 6.1,113.93 -50.92,244.67 -149.16,306.03 44.57,19.21 78.48,8.46 111.25,2.86 79.99,-29.11 226.76,-96.81 150.87,-401.09z"/>
   <g>
    <image x="818.39" y="115.16" width="224.23" height="994.01" xlink:href="FIFA World Cup Qatar 2022_Images\FIFA World Cup Qatar 2022_ImgID12.png"/>
   </g>
   <path class="fil3" d="M1235.49 144.78c-45.46,21.9 -84.77,54.44 -117.84,91.3 -33.17,36.98 -58.88,79.94 -76.88,125.73 -35.87,92.11 -38.61,193.91 -22.9,291.41 14.77,98.21 50.23,193.14 70.42,293.22 10.27,49.88 15.98,101.15 14.35,152.2 -1.76,51.01 -10.74,101.59 -26.4,149.6 9.8,-49.56 14.98,-99.73 12.96,-149.6 -1.48,-49.88 -9.93,-99.14 -21.69,-147.62 -12.06,-48.41 -26.82,-96.42 -41.32,-144.86 -14.07,-48.57 -27.21,-97.98 -35.19,-148.71 -7.69,-50.68 -10.76,-102.38 -6.61,-153.87 2.47,-25.69 6.02,-51.31 12.33,-76.4 6,-25.11 14.01,-49.88 24.58,-73.45 20.62,-47.44 50.21,-90.78 86.8,-126.78 36.77,-35.48 79.47,-65.7 127.41,-82.17z"/>
   <path class="fil3" d="M1132.43 1348.96c10.1,-26.91 16.56,-54.85 19.63,-83.22 2.48,-28.43 3.11,-56.97 0.98,-85.48 -3.01,-57.06 -11.73,-113.79 -20.28,-170.52 -8.25,-56.79 -17.79,-113.45 -25.45,-170.4 -8.06,-56.87 -10.75,-113.97 -16.2,-171.17l51.91 340.03c8.55,56.82 16.5,113.94 18.44,171.71 1.13,28.87 -0.57,57.84 -4.03,86.5 -4.88,28.54 -12.6,56.58 -25,82.56z"/>
   <path class="fil3" d="M989.65 185.95c-11.09,36.17 -21.1,72.61 -28.42,109.56 -7.88,36.89 -13.65,74.13 -17.28,111.55 -7.54,74.82 -7.54,150.38 0.24,225.12 7.3,74.81 24.76,148.26 43.41,221.38 9.21,36.65 19.19,73.12 27.56,110.12 7.84,36.98 15.32,74.62 14.19,112.6 -1.73,-37.87 -10.38,-74.72 -20.24,-111.14 -9.76,-36.44 -20.68,-72.61 -31.1,-108.96 -21.1,-72.63 -38.29,-146.95 -46.81,-222.64 -3.91,-37.87 -5.61,-75.92 -5.13,-113.93 0.51,-38.02 2.48,-76.04 7.45,-113.7 4.95,-37.73 12.04,-75.06 21.16,-111.89 9.56,-36.68 20.94,-72.88 34.97,-108.06z"/>
   <path class="fil13" d="M918.79 217.09c-16.62,31.44 -27.88,65.28 -37.06,99.49 -9.09,34.24 -15.43,69.13 -20.47,104.1 -9.47,70.11 -10.57,141.23 -3.28,211.35 7.28,70.11 24.05,139.29 52.08,203.75 14.35,31.93 30.52,63.81 46.46,95.22 15.67,31.66 33.76,62.09 50.62,93.62 -11.32,-13.82 -22.02,-28.04 -32.41,-42.61 -10.11,-14.65 -19.9,-29.68 -29.11,-44.99 -8.97,-15.5 -17.61,-31.14 -25.67,-47.05 -8.16,-15.74 -15.9,-32.01 -23.06,-48.54 -28.22,-66.15 -44.66,-136.89 -51.52,-208.13 -7.09,-71.36 -3.22,-143.34 7.72,-213.85 5.7,-35.21 13.55,-70.17 24.08,-104.22 10.54,-34 23.18,-67.72 41.62,-98.15z"/>
   <path class="fil3" d="M995.68 212.41c32.51,-49.4 77.41,-89.81 126.25,-123.42 24.6,-16.68 51.19,-30.77 79.69,-40.67 10.29,-3.43 20.71,-6.41 31.56,-8.14 4.24,-0.71 8.7,-1.07 13.03,-1.37 7.74,-0.36 15.58,-0.51 23.38,0.8 7.92,0.95 15.49,3.49 22.44,5.88 56.82,20.22 106.04,54.19 155.84,84.84 24.94,15.3 50.38,29.98 78,38.76 13.7,4.42 28.12,7.13 42.55,6.15 14.42,-0.9 28.69,-5.25 41.38,-12.75 -11.96,8.64 -26.17,14.35 -41.06,16.17 -14.94,1.99 -30.09,0.1 -44.61,-3.54 -29.09,-7.72 -55.51,-21.96 -81.32,-36.24 -51.36,-28.92 -100.07,-62.74 -155.02,-81.1 -7,-2.2 -13.43,-4.4 -20.14,-5.36 -6.7,-1.22 -13.71,-1.17 -20.68,-0.99 -13.94,0.78 -27.99,3.96 -41.57,8.31 -27.35,8.85 -53.06,22.79 -77.92,37.9 -24.79,15.28 -48.27,32.83 -70.34,51.99 -22.35,18.89 -43.21,39.66 -61.47,62.75z"/>
   <path class="fil4" d="M1609.79 162.49c11.73,-9.62 26.76,-16 42.61,-17.1 15.76,-1.14 31.88,2.6 45.97,9.78 25.06,12.7 43.59,30.72 58.19,55.66 0.42,0.71 1.96,3.52 3.33,6.14 0.89,1.67 1.72,3.3 2.2,4.2 15.74,29.11 25.84,57.29 27.06,88.22 1.58,30.81 -5.42,61.5 -22.46,86.76 13.52,-26.37 18.26,-56.72 15.59,-86.29 -2.96,-29.58 -12.66,-58.3 -27.72,-83.82 -14.86,-25.42 -35.31,-48 -60.65,-62.33 -12.7,-7.04 -26.82,-11.36 -41.34,-11.8 -14.57,-0.42 -29.35,3.31 -42.78,10.57z"/>
   <path class="fil3" d="M1165.66 1267.86c14.03,65.28 35.72,128.63 66.27,187.53 14.92,29.65 31.88,58.19 50.53,85.6l28.55 41.03 14.24 20.74c4.71,6.92 8.94,14.24 13.44,21.28 18.08,28.28 33.51,58.1 48.24,88.31 13.89,30.57 25.78,62.06 35.04,94.39 8.84,32.36 15.43,65.37 18.38,98.78 3.23,33.37 3.73,47.43 2.5,80.72 -0.8,-33.34 -2.29,-47.3 -6.94,-80.21 -4.37,-32.98 -11.22,-65.55 -20.91,-97.26 -9.86,-31.69 -22.64,-62.39 -36.35,-92.54 -14.78,-29.68 -30.25,-59.09 -48.42,-86.92 -4.49,-6.97 -8.79,-14.09 -13.45,-20.94l-14.27 -20.45c-9.39,-13.58 -19.22,-27.29 -28.45,-41.23 -18.56,-27.98 -35.46,-57.12 -50.22,-87.24 -29.31,-60.46 -49.15,-125.42 -58.18,-191.59z"/>
   <path class="fil12" d="M1147.11 1087.96c5.03,45.09 16.81,89.09 30.3,132.27 13.56,43.14 29.84,85.45 48.9,126.36 38.27,81.79 87.1,159.14 150.27,223.4 15.88,15.71 32.47,32.03 47.32,49.37 14.92,17.37 28.51,35.87 40.93,55.16 24.79,38.48 43.78,80.77 56.05,124.87 20.62,74.01 23.33,152.16 10.52,227.3 -2.51,14.45 -5.64,28.88 -9.28,43.12 8.87,-44.55 13.3,-89.81 11.71,-134.95 -1.19,-45.12 -7.95,-90.07 -20.93,-133.13 -13.1,-42.99 -31.49,-84.43 -56.18,-122.01 -12.31,-18.74 -25.81,-36.79 -40.55,-53.69 -14.75,-17.1 -30.85,-32.32 -47.02,-48.81 -63.5,-65.88 -113.16,-144.12 -149.99,-227.31 -18.36,-41.68 -34,-84.59 -46.55,-128.3 -6.16,-21.9 -11.55,-43.95 -16.12,-66.24 -4.46,-22.26 -8.33,-44.75 -9.38,-67.43z"/>
   <path class="fil11" d="M1687.87 970.27c23.63,-45.89 43.03,-93.47 60.01,-141.74 17.01,-48.24 31.1,-97.49 42.46,-147.34 11.17,-49.82 19.07,-100.41 22.23,-151.35 1.24,-25.46 1.31,-51.11 -1.46,-76.4l-1.97 -19.07 -3.96 -18.74 -1.91 -9.42c-0.81,-3.13 -2.12,-6.04 -3.07,-9.08l-6.12 -18.33c24.13,46.06 29.93,99.75 29.81,151.33 0,26.01 -1.84,51.96 -5.17,77.77 -3.13,25.74 -7.53,51.34 -13.21,76.69 -10.93,50.7 -26.25,100.41 -45.35,148.59 -19.26,48.03 -42.84,94.63 -72.29,137.09z"/>
   <g>
    <image x="1118.29" y="935.08" width="585.79" height="1235.49" xlink:href="FIFA World Cup Qatar 2022_Images\FIFA World Cup Qatar 2022_ImgID13.png"/>
   </g>
   <g>
    <image x="933.31" y="140.43" width="305.51" height="853.61" xlink:href="FIFA World Cup Qatar 2022_Images\FIFA World Cup Qatar 2022_ImgID14.png"/>
   </g>
   <g>
    <image x="795.97" y="0.04" width="1053.86" height="2263.2" xlink:href="FIFA World Cup Qatar 2022_Images\FIFA World Cup Qatar 2022_ImgID15.png"/>
   </g>
   <g>
    <image x="795.97" y="0.04" width="1053.86" height="2263.2" xlink:href="FIFA World Cup Qatar 2022_Images\FIFA World Cup Qatar 2022_ImgID16.png"/>
   </g>
   <path class="fil16" d="M1350.08 1951.01c2.12,-104.58 -17.66,-207.73 -50.44,-305.82 -32.95,-98.26 -79.07,-191.61 -132.44,-280.43 -26.52,-44.64 -54.2,-89.31 -80.15,-134.56 -25.95,-45.38 -51.43,-90.96 -75.62,-137.32 -48.39,-92.58 -93.89,-187.03 -128.04,-285.9 21.13,47.79 43.69,94.61 68.21,140.65 23.99,46.21 49.02,91.85 74.58,137.26 51.01,90.88 104.72,179.83 159.02,269.12 53.57,90.13 99.51,185.51 129.76,286.34 15.23,50.29 26.55,101.81 32.86,153.93 6.11,52.08 7.24,104.82 2.26,156.75z"/>
   <g>
    <image x="882.86" y="803.11" width="672.68" height="1224.26" xlink:href="FIFA World Cup Qatar 2022_Images\FIFA World Cup Qatar 2022_ImgID17.png"/>
   </g>
   <path class="fil14" d="M1172.29 1434.44c-6.26,-14.24 -11.14,-24.46 -18.74,-39.17 -39.54,91.08 -123.99,278.05 -150.94,454.11 -1.07,5.95 -7.6,46.5 -8.02,80.42 0.6,6.05 1.49,11.73 2.65,16.95 23.78,102.62 60.78,120.07 76.19,122.7 -9.63,-11.92 -17.02,-25.6 -21.9,-40.35 -26.46,-79.38 -20.94,-237.26 120.76,-594.67z"/>
   <path class="fil11" d="M1661.51 1764.4c-29.59,-73.7 -88.95,-189.09 -180.54,-356.81l-0.56 -0.92c0,0 -59.35,-97.94 -59.42,-97.98 -112.95,-203.09 -234.58,-379.98 -300.75,-546.54 -14.58,-44.94 -26.08,-89.24 -33.17,-131.64 -0.07,-0.18 -0.07,-0.33 -0.09,-0.5 -0.07,-0.3 -0.1,-0.54 -0.18,-0.78 6.43,41.23 4.77,83.94 18.05,149.63 25.74,122.88 81.55,258.66 184.11,384.61 120.95,148.41 258.18,329.68 321.26,607.98 8.11,35.78 20.23,115.58 25.03,189.59 5.77,89.24 -10.91,151.55 -42.76,217.24 0.77,1.11 19.94,26.61 75.45,-50.9 4.46,-6.75 8.01,-13.61 11.26,-20.42 18.98,-56.5 48.05,-171.85 -17.7,-342.57z"/>
   <path class="fil17" d="M878.21 417.3c0,46.06 37.32,83.33 83.38,83.33 46.1,0 83.44,-37.27 83.44,-83.33 0,-46.07 -37.33,-83.44 -83.44,-83.44 -46.06,0 -83.38,37.37 -83.38,83.44zm94.53 -39.44c-8.42,-3.26 -13.74,-11.3 -13.79,-19.87 0.87,-0.08 1.73,-0.25 2.64,-0.25 13.68,0 26.13,4.73 36.18,12.55 -4.03,5.63 -10.56,8.96 -17.39,8.96 -2.56,0 -5.13,-0.44 -7.63,-1.39zm-66.62 18.02c5.1,-13.14 14.74,-23.88 26.93,-30.58 1.87,3.13 3.01,6.85 3.01,10.71 0,11.91 -9.63,21.53 -21.52,21.53 -3.01,0 -5.77,-0.53 -8.42,-1.66zm42.66 42.55l0 -0.01 -10.73 -20.2c-1.19,-2.3 -0.77,-5.1 0.95,-6.97l15.97 -16.44c1.79,-1.88 4.59,-2.43 6.89,-1.26l20.58 10.07c2.36,1.13 3.68,3.61 3.29,6.19l-3.21 22.69c-0.35,2.59 -2.34,4.61 -4.85,5.07l-22.55 3.92c-0.34,0.07 -0.73,0.07 -1.04,0.07 -2.21,0 -4.24,-1.16 -5.32,-3.12zm53.15 -16.93c0,-10.2 7.12,-18.62 16.55,-20.94 1.6,5.36 2.67,10.87 2.67,16.74 0,8.64 -1.9,16.83 -5.3,24.26 -8.1,-3.04 -13.92,-10.89 -13.92,-20.06zm-98.05 9.86c1.73,-0.44 3.54,-0.75 5.46,-0.75 11.82,0 21.51,9.59 21.51,21.51 0,4.95 -1.67,9.37 -4.47,12.99 -11.07,-8.18 -19.15,-19.98 -22.49,-33.75zm73.6 26.22c7.19,0 13.53,3.61 17.46,9.06 -9.48,6.43 -20.96,10.19 -33.35,10.19 -1.84,0 -3.59,-0.33 -5.33,-0.51 1.35,-10.58 10.29,-18.74 21.22,-18.74z"/>
   <polygon class="fil18" points="971.49,266.06 990.74,299.43 1024.12,280.17 1004.86,246.81 "/>
   <polygon class="fil19" points="924.11,565.2 951.89,592 978.67,564.34 950.93,537.46 "/>
   <path class="fil20" d="M1483.77 1966.29l0 -0.01c-2.99,3.92 -4.59,10.44 -5.31,18.81 -0.71,8.49 -0.42,16.09 0.21,23.33 -3.13,-3.42 -9.32,-4.56 -12.62,-2.03 0.87,3.37 1.99,6.43 2.43,10.03 0.36,2.51 0.36,5.27 0.39,7.97 -5.81,4.25 -12.51,10.03 -13.44,20.82 -0.15,1.72 -0.09,3.31 -0.09,4.95 -2.18,-6.85 -5.96,-13.86 -7.84,-19.81 -1.7,-5.3 -4.74,-10.4 -7.72,-13.08 -0.86,-0.87 -1.99,-1.14 -3.04,-1.76 -0.65,1.76 -1.16,3.64 -1.82,5.25 -0.26,0.8 -0.38,1.63 -0.7,3.25 -2,-2.06 -3.61,-3.94 -5.61,-5.4 -1.49,-1.07 -3.28,-1.55 -5.1,-1.9 -3.81,-0.86 -4.47,0.05 -4.47,5.63 0,1.82 -0.08,3.75 -0.15,6.15 -8.32,-3.19 -12.93,3.54 -12.74,3.72 1.76,1.63 3.29,2.64 3.68,5.18 0.4,2.39 -0.56,6.14 -1.76,9.38 -2.38,6.44 -0.79,17.39 3.82,21.64 3.3,3.07 9.44,2.49 13.77,-1.7 5,-4.66 6.55,-19.01 3.75,-23.48 -1.7,-2.69 -2.89,-2.72 -6.19,-0.44 0.85,1.87 2.59,3.69 2.35,5.8 -0.24,2.39 -1.91,5.68 -3.6,7.57 -2.33,2.51 -4.95,2.74 -6.82,0.69 -3.27,-3.68 -3.34,-10.02 -0.29,-15.98 0.85,-1.65 3,-4.7 4.11,-5.53 4.7,-3.43 10.26,-4.41 13.69,-1.97 3.82,2.72 6.14,7.09 6.61,13.57 0.89,11.32 -4.98,28.97 -4.43,40.23 0.38,10.44 7.83,14.55 16.48,16.25 3.82,0.75 13.68,1.87 15.72,2.62 10.3,3.7 19.26,3.13 24.72,-6.39 5.64,-9.73 8.7,-28.11 14.72,-37.8 3.49,-5.51 7.51,-8.31 12.16,-9.08 4.23,-0.57 8.7,2.71 11.32,7.96 0.66,1.24 1.07,4.91 1.13,6.82 -0.13,6.67 -3.13,12.31 -7.7,14.01 -2.71,0.99 -4.94,-0.33 -5.8,-3.67 -0.62,-2.4 -0.57,-6.11 0.36,-8.4 0.75,-1.94 3.07,-2.71 4.7,-4.03 -1.87,-3.54 -2.93,-4.1 -5.67,-2.47 -4.58,2.74 -9.34,15.94 -7.02,22.32 1.82,5.68 7.06,8.96 11.39,7.74 6.16,-1.73 12.04,-10.36 12.98,-17.31 0.42,-3.34 1.37,-7.09 2.74,-9.08 1.54,-2.11 3.35,-2.3 5.76,-2.89 0.18,-0.07 0.33,-0.48 0.65,-0.99 -1.34,-7.3 -6.33,-6.11 -10.27,-8.08 1.02,-2.23 1.82,-3.91 2.71,-5.61 2.6,-4.94 2.42,-6.06 -1.4,-6.94 -1.75,-0.48 -3.55,-0.95 -5.42,-0.62 -2.38,0.33 -4.73,1.37 -7.45,2.26 0.42,-1.58 0.69,-2.39 0.83,-3.16 0.25,-1.8 0.63,-3.72 0.86,-5.54 -0.48,0.06 -0.9,0.06 -1.31,0 -0.77,0 -1.52,-0.06 -2.32,0.18 -3.82,1.07 -6.39,3.46 -11.25,6.31 -4.53,2.7 -10.37,9.45 -15.1,16.25 0.56,-2.35 1.22,-4.65 2.09,-6.78 3.06,-7.82 2.5,-12.64 -0.54,-16.41l-3.46 -5.61c0.37,-0.82 0.75,-1.79 1.11,-2.88 1.61,-5.24 4.08,-9.33 6.03,-14.51 -0.87,-3.29 -6.77,-6.38 -10.66,-5 2.2,-7.09 3.73,-14.81 3.78,-23.81 -0.05,-8.22 -2,-13.28 -4.21,-17.19 -0.31,-0.56 -0.8,-0.8 -1.28,-0.8 -0.83,0 -1.75,0.64 -2.47,1.46zm-76.14 296.95l0.79 0c4.05,-4.76 8.88,-9.44 14.54,-13.74 16.2,-12.5 32.28,-18.94 47.4,-18.26 11.96,0.62 22.56,2.89 33.64,3.37 6.79,0.33 13.43,0.74 20.5,-0.51 9.91,-1.8 19.54,-9.37 27.92,-23.13 -2.68,-0.56 -5.16,-1.06 -7.93,-1.75 11.61,-10.42 20.89,-22.61 23.94,-38.77 -4.81,3.35 -9.24,6.12 -13.9,8.82 3.06,-6.46 6.08,-12.6 7.96,-18.59 1.98,-6.35 1.76,-11.48 -0.51,-14.97 -3.19,5.31 -6.15,10.2 -9.69,15.72 -0.51,-0.28 -1.3,-0.57 -2.11,-1.02 -5.89,-3.31 -27.91,-8.26 -39.2,3.88 -7.77,8.61 -17.07,30.23 -2.83,39.57 3.49,2.21 6.02,4.35 11.57,1.63 4.61,-2.35 7.69,-6.63 9.83,-11.55 0.41,-0.9 0.48,-1.88 0.79,-3.28 -0.89,0.68 -1.36,0.95 -1.81,1.46 -4.59,5.01 -7.28,6.3 -9.5,4.8 -2.24,-1.37 -4,-9.62 -1.46,-14.18 6.77,-12.14 19.51,-16.2 25.83,-12.34 5.01,3.1 6.14,9.78 2.12,19.69 -4.72,11.61 -12.6,20.89 -22.11,24.82 -8.66,3.57 -17.19,4.95 -25.71,6.08 -5.3,0.62 -10.54,-0.63 -16.06,-1.83 -6.94,-1.56 -14.18,-3.12 -21.99,-0.94 -21.06,6.02 -45.64,25.39 -59.61,44.8 2.53,0.16 5.04,0.21 7.58,0.22zm-75.34 -199.56c-1.34,-4.68 -2.72,-9.4 -4.18,-14.5 -6.19,1.22 -9.88,5.96 -12.57,11.03 -2.63,5.03 -3.99,10.64 -6.02,15.79 -2.5,-2.14 -5,-4.42 -7.57,-6.68 -7.99,9.45 -9.3,19.34 -2.06,30.89 5.93,9.43 12.92,18.06 19.64,26.61 7.63,9.81 15.38,19.16 15.91,31.96 0.56,11.98 -5.88,22.45 -16.06,31 -8.08,6.82 -17.04,9.35 -28.31,9.4 -0.36,0 -1.31,3.33 -1.48,3.97 1.01,4.68 9.41,2.56 13.64,1.48 31.79,-8.04 52.34,-32.17 42.79,-56.6 -3.67,-9.72 -16.07,-25.15 -20.81,-34.58 -3.95,-7.71 -7.5,-15.51 -5.8,-24.65 2.11,-10.74 12.6,-21.25 25.93,-19.03 7.57,1.22 13.54,7.47 13.5,15.08 -0.07,4.88 -4.24,11.34 -9.06,13.46 -3.13,1.3 -6.39,1.76 -8.79,-0.51 -2.21,-2.2 -2.21,-4.95 -0.75,-7.92 0.24,-0.48 0.3,-1.01 0.42,-1.58 -4.89,0.39 -11.03,7.06 -10.35,12.27 1.29,9.13 21.78,16.39 31.2,10.19 8.65,-5.6 13.28,-18.71 10.19,-29.25 -3,-10.19 -7.59,-15.52 -17.29,-18.65 -1.03,-0.42 -1.93,-0.85 -2.7,-1.26 1.93,-4.88 3.52,-9.13 5.15,-13.76 -0.61,-0.03 -1.22,-0.03 -1.85,-0.03 -10.66,0 -16.65,6.7 -22.73,15.84zm72.88 37.52c-6.2,2.65 -13.65,10.08 -15.05,15.19 3.04,-0.79 5.87,-1.8 8.49,-2.25 5.69,-0.71 9.54,2.09 10.55,7.4 0.83,4.5 -2.45,12.38 -7,16.23 -7.4,6.3 -15.21,11.83 -22.85,17.64 -8.92,6.58 -12.91,14.39 -12.24,23.26 0.8,11.87 10.78,20.33 12.54,22.03 -15.46,19.64 -33.82,36.03 -52.47,50.91 5.13,1.49 10.27,2.92 15.4,4.06 16.81,-14.3 33.2,-29.48 49.04,-46.86 13.48,5.93 29.95,7.24 42.88,-2.72 8.31,-6.44 12.16,-14.24 15.5,-22.44 2.52,-6.18 4.47,-12.48 6.61,-18.8 2.97,-8.57 9.19,-15.49 15.73,-18.05 5.99,-2.33 9.57,0.63 10.1,8.44 0.02,1.04 0.09,1.99 0.21,3.72 4.1,-5.22 5.63,-10.5 6.75,-15.4 2,-9.4 -0.2,-15.14 -4.13,-18.89 -4.68,-4.38 -12.55,-4.71 -20.56,1.37 -3.14,2.23 -7.12,6.75 -10.02,11.17 -3.81,5.83 -6.92,11.72 -9.83,17.69 -9.46,12.55 -17.16,20.72 -22.41,25.59 5.81,-8.69 10.25,-17.93 14.12,-27.26 3.38,-8.04 6.15,-16.2 8.83,-24.43 0.36,-1.01 0.51,-2.09 0.92,-3.96 -1.43,1.37 -2.23,1.87 -2.85,2.68 -11.16,13.5 -23.73,25.74 -36.22,37.71 -1.25,1.17 -2.2,2.48 -3.37,3.76 0.53,-6.43 5.25,-14.77 10.17,-22.02 1.84,-1.87 3.57,-3.76 5.21,-5.77 5.12,-6.06 9.57,-13.36 12.36,-20.42 3.58,-9.27 0.52,-15.21 -4.86,-18.81 -3.13,-2.14 -6.62,-3.32 -10.57,-3.32 -3.26,0 -6.95,0.84 -11,2.55zm-127.29 22.89c-5.42,-0.31 -16.3,-0.75 -16.42,-0.31 30.45,15.39 39.42,36.58 44.37,62.5 6.56,-3.18 13.02,-22.73 11.88,-33.01 -1.51,-14.27 -9.44,-24.67 -22.46,-34.55 -0.37,1.96 -0.6,3.1 -0.96,4.59 -7.09,-3.25 -11.53,-10.13 -20.56,-11.6 1.46,4.46 2.77,8.35 4.15,12.38zm43.3 82.45c-6.65,5.41 -6.47,14.45 -0.99,21.57 1.84,2.42 3.96,4.49 5.38,6.16 5.76,-4.73 10.7,-9.59 16.27,-13.85 12.35,-9.51 15.91,-20.53 14.13,-31.95 -0.4,-2.79 -1.22,-5.51 -1.96,-9.05 -11.15,9.94 -22.41,18.5 -32.83,27.12zm-54.59 3.54c-5.93,-0.24 -11.56,-0.54 -17.26,-1.22 -0.05,0.48 6.32,6.62 10.08,9.44 -2.73,2.31 -5.25,4.39 -7.82,6.44 27.18,-1.08 47.38,11.51 67.61,24.11 -2.6,-16.3 -25.7,-38.25 -53.7,-42.25 0.33,1.14 0.66,2.21 1.08,3.49zm108.45 34.87c-4.32,4.98 -10.34,9.61 -15.47,14.12 9.66,1.68 19.16,2.74 28.68,3.34 1.09,-0.51 2.2,-1.11 3.21,-1.88 5.28,-3.78 9.6,-8.88 13.99,-13.68 3.18,-3.53 5.59,-7.59 8.67,-11.38 2.86,-3.6 6.11,-7.05 9.27,-10.81 -19.58,0.56 -35.96,6.02 -48.33,20.3zm101.57 -0.73c-16.8,1.44 -35.31,9.13 -53.1,18.75 28.07,-1.04 54.89,-5.54 78.58,-11.8 -5.36,-4.68 -12.14,-7.11 -20.98,-7.11 -1.43,0 -2.96,0.07 -4.5,0.16z"/>
   <path class="fil21" d="M1311.1 1380.77c-0.9,0.12 -1.64,0.6 -1.7,1.48l0 0.3c0.29,4.92 1.64,10.61 6.46,17.96 5.34,8.14 11.17,14.2 17.37,19.28 -4.27,1.15 -7.75,7.34 -6.46,10.85 4.73,3.49 9.39,5.76 13.89,9.51 9.44,7.74 14.3,3.6 15.05,0.11 0.19,-1.25 -1.26,-3.51 -3.43,-6.14 1.99,1.83 4.26,3.04 6.6,3.02 4.15,-0.92 6.95,-2.83 3.82,-9.33 -1.67,-3.31 -4.69,-7.09 -6.32,-10.54 -1.72,-3.64 -2.52,-7 -3.78,-10.52 -4.43,-0.36 -9.32,4.27 -10,9.21 -3.76,-6.91 -7.99,-13.95 -13.68,-21.12 -5.54,-7.13 -10.91,-12.07 -15.83,-13.83 -0.36,-0.12 -0.75,-0.21 -1.09,-0.24l-0.9 0zm79.49 30.72c1.14,7.98 9.48,21.27 17.83,31.56 -3.6,-8.5 -2.14,-13.32 1.13,-17.51 1.26,-1.55 0.92,-7.43 -3.63,-13 -1.76,-2.18 -5.83,-6.26 -8.47,-7.01 -0.86,-0.26 -1.7,-0.38 -2.39,-0.38 -3.6,0 -4.9,3.16 -4.47,6.34zm56.27 7.51c-1.95,1.55 -5.39,4.37 -7.34,15.07 -1.61,-2.11 -6.11,-6.11 -8.24,-7.98 -0.82,1.37 -1.93,2.38 -2.36,3.98 -1.49,4.89 -0.69,10.76 2.74,17.14 5.85,11.06 12.24,21.93 18.71,32.74 11.92,19.96 23.36,39.12 16.86,56.65 1.37,-0.09 1.83,-0.07 2.06,-0.09 0.44,-0.15 0.68,-0.71 1.05,-0.93 8.9,-6.22 15.51,-16.75 9.03,-29.38 -6.68,-13.05 -24.59,-29.43 -30.82,-42.81 -3.64,-7.65 -3.81,-14.09 -1.28,-19.62 2.32,-4.95 9.13,-7.43 16.63,-6.61 1.79,0.25 6.16,2.41 8.16,3.67 7.31,4.95 11.34,12.18 9.93,18.32 -0.81,3.55 -3.88,5.08 -8.08,3.62 -3.1,-1.07 -7.12,-3.76 -8.94,-6.29 -1.61,-2.21 -0.81,-5.3 -1.04,-8.02 -5.19,-0.5 -6.55,0.28 -6.7,4.38 -0.33,6.89 8.01,16.81 16.62,18.87 7.51,2.06 14.9,-1.29 16.62,-6.83 2.5,-7.84 -0.17,-15.79 -7.02,-21.7 -3.4,-2.8 -6.85,-6.49 -7.99,-9.47 -1.16,-3.01 -0.09,-5.19 0.82,-8.26 0.13,-0.27 -0.23,-0.68 -0.48,-1.37 -8.95,-3.76 -11.24,2.47 -16.18,5.34 -1.61,-2.71 -2.89,-4.81 -4.18,-6.98 -2.12,-3.74 -3.37,-5.39 -4.95,-5.39 -0.98,0 -2.12,0.69 -3.63,1.95zm-69.84 11.23c-1.49,1.4 -2.45,4.32 -0.9,7.11 3.01,5.71 9.11,11.37 15.86,14.6 12.84,6.21 24.49,15.52 33.13,27.45 1.49,2.11 2.92,4.25 4.32,6.43 -7.42,-7.36 -16.05,-14.09 -23.89,-20.94 -8.43,-7.24 -16.57,-10.61 -23.46,-10.28 -2.03,0.13 -3.45,1.97 -3.35,3.99 0.33,7.1 5.11,14.37 12.31,23.07 6.07,7.36 12.15,15.81 18.76,23.8 -1.4,-1.19 -2.86,-2.3 -4.25,-3.49 -10.17,-8.2 -18.98,-18.08 -26.08,-29.5 -3.54,-5.72 -19.15,-24.89 -25.93,-15.29 -2.43,3.46 1.32,10.37 8.57,15.94 6.44,4.89 13.01,9.01 19.51,13.72 0.12,7.87 3.13,12.94 12.53,19.75 5.41,3.84 10.84,6.8 16.23,10.54 1.61,1.14 3.94,3.25 4.5,4.76 2.75,7.7 7.81,11.75 13.31,14.19 6.29,2.76 11.96,2.89 16.01,2.76 3.68,-0.14 7.5,-2.14 10.08,-5.58 3.78,-5.03 6.09,-18.27 0.43,-28.79 -1.87,-3.46 -5.39,-7.44 -8.63,-10.19 -2.63,-2.32 -4.21,-3.81 -5.73,-7.07 -3.04,-6.63 -6.92,-13.25 -11.41,-19.62 -6.44,-8.94 -12.07,-11.83 -18.27,-11.15 -5.42,-6.73 -10.34,-12.99 -16.05,-18.74 -5.2,-5.15 -11.29,-8.31 -15.03,-8.31 -1.07,0 -1.97,0.26 -2.55,0.83zm-43.81 56.82c0.03,9.06 13.56,10.34 16.9,9.06 4.11,-1.59 6.73,-4.73 10.78,-6.2 2.78,-0.89 7,0.18 12.04,0.49 -8.82,-5.55 -22.17,-12.1 -30.88,-12.1 -5.26,0 -8.87,2.35 -8.83,8.76zm19.34 16.42c-1.58,0.36 -2.69,1.37 -4.09,2.06 1.95,2.28 4.89,6.82 7.42,8.76 -3.65,0.8 -6.91,1.09 -9.8,2.23 -2.32,0.83 -3.98,2.47 -5.75,4.11 -3.66,3.5 -3.1,4.88 2.89,8.82 2.12,1.37 4.06,2.77 6.73,4.59 -9.38,6.67 -5.29,16.48 -5,16.41 3.03,-0.79 5.24,-1.72 8.26,-0.35 2.85,1.37 6.34,5.06 8.92,8.57 5.5,7.28 13.24,10.44 21.22,8.47 5.71,-1.38 9.4,-8.5 7.85,-16.18 -1.55,-8.67 -10.85,-17.69 -17.7,-17.79 -4.16,-0.09 -5.04,1.22 -4.88,6.38 2.74,0.48 5.8,-0.18 7.91,1.55 2.45,2 4.89,6.17 5.76,9.35 1.16,4.33 -0.51,7.22 -4.12,7.79 -6.22,1.04 -13.24,-3.46 -17.63,-11.02 -1.2,-2.12 -3.02,-6.56 -3.14,-8.41 -0.38,-7.57 2.51,-14.17 7.63,-16.14 5.7,-2.18 12.07,-1.55 19.45,2.49 12.97,7.19 28.16,26.04 40.8,33.52 12.19,7.28 23.12,1.41 29.88,-7.08 0.25,-0.33 0.81,-0.57 0.99,-0.98 0.03,-0.22 0,-0.73 0.21,-2.1 -17.87,5.4 -36.27,-7.26 -55.47,-20.4 -10.31,-7.15 -20.78,-14.28 -31.39,-20.83 -4.61,-2.82 -9.03,-4.27 -13.04,-4.27 -1.35,0 -2.66,0.16 -3.91,0.47zm150.04 9.26c-9.56,4.95 -13.79,18.35 -4.97,35.55 2.17,4.11 4.78,8.46 7.81,12.24 11.68,14.78 24.79,26.75 37.75,39 7.87,7.57 15.25,15.76 22.73,24.04 19.25,21.43 15.71,46.84 16.25,48.04 8.58,-13.99 16.09,-28.37 9.03,-50.66 -4.51,-13.91 -13.96,-23.38 -23.7,-31.85 -7.38,-6.51 -15.13,-12.02 -22.82,-18 -10.46,-8.13 -17.14,-20.02 -17.55,-30.18 -0.39,-9.27 5.36,-12.79 16.41,-9.71 1.43,0.38 2.26,0.6 4.77,1.31 -4.05,-7.51 -11.32,-12.6 -17.68,-16.47 -6.81,-4.15 -12.65,-5.78 -17.74,-5.78 -3.85,0 -7.25,0.95 -10.3,2.47zm-15.88 58.56c13.38,21.68 24.37,44.74 35.05,67.6 5.38,11.31 13.11,21.75 20.17,31.69 2.62,3.64 8.1,4.66 12.24,5.46 2.89,0.56 4.92,1.4 6.77,4.88 23.87,43.75 42.61,89.46 57.62,133.52 0.44,1.48 0.8,3.76 0.25,5.05 -6.59,13.19 -2.61,22.64 4.25,31.22 5.42,6.85 15.4,20.74 19.31,20.41 0.8,-8.24 1.73,-16.38 1.57,-24.5 -0.02,-7.28 -0.31,-14.97 -2.44,-21.8 -1.25,-4.13 -5.81,-6.55 -8.87,-9.83 -2.22,-2.33 -5.43,-4.11 -6.44,-7 -15.88,-43.05 -34.89,-87.92 -58.88,-130.54 -2.38,-4.42 -2.96,-7.45 -1.46,-11.75 2.5,-7.47 0.15,-15.78 -4.26,-23.57 -11.36,-19.82 -26.65,-35.15 -42.55,-49.2 -9.57,-8.44 -19.52,-16.08 -29.62,-23.68 -1.26,-0.99 -2.63,-1.65 -5,-3.14 1.16,2.57 1.54,4 2.28,5.2zm-43.23 10.62c-8.25,6.12 -12.27,15.23 -11.26,29.18 0.78,9.72 7.44,23.49 13.88,27.83 0.37,-4.49 0.27,-8.88 0.94,-12.63 1.68,-8.1 7.38,-12.12 15.12,-10.99 6.68,1.07 16,9.32 19.13,17.4 5.25,13.06 9.32,26.39 13.62,39.66 4.96,15.31 13.8,24.76 26.44,27.89 10.27,2.56 20.22,0.6 30.26,-3.91 -4.25,-2.59 -7.57,-4.71 -11.02,-6.67 -10.91,-6.34 -18.12,-17.44 -23.66,-30.55 -6.91,-16.33 -13.38,-33.04 -22.71,-48.17 -5.97,-9.95 -13.94,-19.5 -22.42,-26.67 -5.73,-4.79 -11.06,-6.75 -15.95,-6.75 -4.56,0 -8.73,1.72 -12.37,4.39zm-83.93 104.98c-6.77,-1.13 -13.65,-2.21 -21.11,-3.39 -2.06,8.48 1.77,16.05 6.65,22.53 4.86,6.32 11.22,11.32 16.63,16.96 -4.29,1.93 -8.69,3.76 -13.02,5.61 7.28,15.7 19.19,23.38 38.25,21.17 15.57,-1.85 30.72,-5.6 45.78,-8.98 17.13,-3.8 33.68,-8 50.38,-0.99 15.74,6.48 25.21,20.86 30.1,38.84 3.83,14.34 1.72,27.23 -4.89,41.48 -0.21,0.42 2.98,3.49 4.23,4.26 1.93,-5.78 7.89,-14.72 9.11,-20.71 8.77,-44.99 -21.42,-76.46 -58.43,-79.02 -14.56,-1.2 -29.33,0.56 -44.24,0.95 -12.21,0.39 -24.37,0.18 -34.89,-7.39 -12.51,-9.18 -19.69,-28.69 -8.95,-44.22 6.18,-8.84 17.73,-12.6 27.33,-8.08 6.31,3.02 12.1,12.17 11.86,19.55 -0.13,4.84 -1.49,9.19 -5.88,10.85 -4.17,1.52 -7.62,-0.09 -10.61,-3.81 -0.48,-0.53 -1.13,-0.92 -1.7,-1.41 -2.5,6.37 2.43,18.05 9.54,20.34 12.33,3.9 24.76,-11.98 22.46,-27.57 -1.98,-14.28 -8.64,-26.26 -21.18,-31.86 -13.76,-6.11 -25.44,-3.93 -35.21,6.32 -1.16,1.13 -2.24,1.97 -3.23,2.8 -5.14,-5.39 -9.61,-9.96 -14.53,-14.85 -8.11,14.49 -3.01,26.73 5.54,40.59zm69.92 23.48c14.04,-0.46 28.64,-18.46 22.03,-34.45 -4.77,-11.94 -19.16,-21.79 -30.33,-28.64 17.32,19.83 24.31,41.34 8.3,63.09zm179.26 24.94c4.95,8.31 8.23,17.94 11.94,27 13.47,-8.2 23,-24.47 17.47,-42.08 -2.84,-8.99 -7.73,-17.31 -12.27,-25.5 -3.49,-6.14 -7.87,-11.44 -11.64,-17.37 -3.68,-5.7 -6.89,-11.73 -10.62,-17.84 -8.57,27.08 -8.77,52.06 5.12,75.8zm-51.87 33.9c4.38,11.72 16.95,15.82 29.43,11.72 4.17,-1.45 8.14,-3.31 11.1,-4.47 -3.84,-10.16 -8.24,-19.17 -11.49,-28.85 -7.23,-21.45 -20.78,-31.62 -37.47,-34.63 -4.08,-0.69 -8.31,-0.92 -13.5,-1.58 8.55,20 14.95,39.39 21.93,57.81zm-148.2 -1.84c2.56,1.49 4,2.26 5.89,3.44 -7.76,8.24 -19.44,10.98 -25.83,22.61 6.94,0.13 12.97,0.18 19.13,0.25 -2.95,7.24 -8.66,21.99 -8.2,22.38 35.75,-34.44 69.31,-36.65 107.51,-30.96 -1.28,-10.51 -25.3,-28.75 -40.04,-32.1 -4.71,-1.07 -9.3,-1.6 -13.8,-1.6 -15.13,0 -29.37,5.87 -44.65,15.98zm226.21 11.05c9.57,-3.77 19.07,-7.24 28.46,-9.21 -0.64,-1.61 -1.19,-3.26 -1.82,-4.83 -1.6,-4.03 -3.38,-8.23 -5.13,-12.51 -9.35,7.57 -17.25,17.25 -21.51,26.55zm1.88 23.67c-0.53,0.18 -0.92,0.96 -1.88,2.39 14.35,2.57 19.7,15.2 22.38,29.82 8.32,-2.04 12.06,-9.18 15.71,-15.65 3.13,2.87 6.04,6.27 9.39,8.71 -2.89,-10.51 -6.14,-21.29 -9.81,-32.32 -1.9,-0.2 -3.84,-0.36 -5.73,-0.36 -10.12,0 -20.11,3.1 -30.06,7.42zm-124.88 50.39c1.73,0.06 3.46,0.09 5.4,0.13 -3.17,7.94 -6.29,15.6 -9.91,23.03 0.58,0.36 12.19,-5.46 17.88,-9.27 1.88,4.88 3.52,9.29 5.16,13.76 11.46,-37.75 38.36,-59.32 65.4,-81.04 -2,-0.36 -4.11,-0.51 -6.32,-0.51 -24.25,0 -60.34,20.55 -77.63,53.9zm87.81 -25.56c-9.35,8.04 -18.06,16.92 -22.76,29.07 -4.62,11.68 -3.17,21.04 4.31,28.99 9.39,-8.55 16.39,-17.16 13.64,-28.01 6.56,-0.36 12.82,-0.81 20.74,-1.37 -5.86,-12.9 -9.49,-24.3 -1.48,-38.08 -0.44,-0.36 -0.84,-0.75 -1.31,-1.03 -4.2,3.53 -8.81,6.79 -13.14,10.43zm55.33 16.62c4.84,8.22 8.26,15.46 13.12,21.45 3.37,4.44 8.9,7.36 15.76,4.44 2.38,-0.95 5.6,-3.45 7.23,-5.93 -0.65,-3.17 -1.37,-6.38 -2.11,-9.64 -4.82,0.56 -8.55,-2.27 -11.63,-4.51 -5.12,-3.66 -10.6,-6.02 -18.2,-6.02 -1.31,0 -2.72,0.05 -4.18,0.21zm-49.51 38.94c-1.94,6.38 -4.61,11.63 -13.14,13.43 3.39,4.95 8.57,5.87 14.57,5.19 5.64,-0.68 9.56,-4.68 12,-9.05 3.72,-6.65 4.15,-14.65 3.25,-21.51 -0.48,-3.78 -1.21,-8.26 -2.45,-10.73 -7.74,7.09 -11.68,14.68 -14.24,22.67zm58.69 10.85c6.66,3.79 16.37,-0.6 21.69,-11.53 -8.85,2.44 -12.03,-3.14 -16.57,-7.73 -4,-4 -9.1,-6.62 -14.24,-10.22 -2.65,11.12 1.91,25.48 9.12,29.48zm-37.18 -1.79c0.2,6.01 0.29,11.44 -5.87,17.01 5.87,1.73 11,0.27 16.06,-3.75 4.56,-3.53 5.93,-7.87 5.68,-12.78 -0.44,-8.55 -6.7,-18.77 -14.75,-22.56 -0.17,8.08 -1.46,15.4 -1.13,22.08zm27.3 25.18c0.77,1.19 1.75,1.84 2.96,1.96l0.91 0c1.04,-0.09 2.25,-0.48 3.68,-1.18 4.09,-2.07 5.46,-4.38 4.83,-7.55 -1.67,-8.91 -8.19,-14.45 -15.36,-19.79 -1.39,10.12 -1.78,19.26 2.98,26.55z"/>
   <path class="fil2" d="M1106.8 1374.76l-59.54 9.45 37.96 -47.02 -11.8 -20.47 -72.26 41.5 7.54 13.2 55.3 -31.74 0.21 0.36 -43.61 52.06 6.19 10.78 66.93 -11.34 0.21 0.26 -55.24 31.77 7.57 13.19 72.28 -41.48 -11.74 -20.53zm-54.25 -66.36l12.16 -6.94 -33.1 -57.72 -12.16 6.95 12.72 22.26 -60.13 34.53 7.58 13.23 60.15 -34.56 12.78 22.26z"/>
   <path class="fil22" d="M1719.33 2937.95c0,-54 -37.43,-86.76 -104.46,-86.76 -37.09,0 -64.3,7.88 -80.83,15.8 -9.48,13.38 -13.85,28.78 -19.72,53.18 25.22,-9.85 49.68,-17.7 86.75,-17.7 29.55,0 53.21,12.62 53.21,47.32 0,37.42 -23.27,64.65 -149.84,138 0,7.89 0.39,23.65 3.96,43.41l209 0c5.93,-17.76 9.84,-33.51 11.8,-51.26l-177.88 0c88.85,-30.39 168,-62.13 168,-141.98zm532.42 0c0,-54 -37.5,-86.76 -104.57,-86.76 -37.03,0 -64.24,7.88 -80.82,15.8 -9.44,13.38 -13.79,28.78 -19.72,53.18 25.25,-9.85 49.72,-17.7 86.78,-17.7 29.56,0 53.25,12.62 53.25,47.32 0,37.42 -23.27,64.65 -149.86,138 0,7.89 0.39,23.65 3.94,43.41l209.02 0c5.89,-17.76 9.85,-33.51 11.82,-51.26l-177.9 0c88.88,-30.39 168.06,-62.13 168.06,-141.98zm-361.96 20.76c-13.78,9.82 -25.62,21.32 -36.06,34.47 10.44,13.13 22.28,24.58 36.06,34.44 13.79,-9.86 25.59,-21.31 36.11,-34.44 -10.52,-13.14 -22.32,-24.65 -36.11,-34.47zm-0.89 -107.53c-78.83,0 -138.02,47.32 -138.02,124.23 0,100.55 96.63,159.71 138.02,159.71 41.44,0 138.02,-59.16 138.02,-159.71 0,-76.91 -59.11,-124.23 -138.02,-124.23zm0 260.25c-17.71,0 -72.94,-35.89 -72.94,-132.06 0,-47.36 27.63,-76.9 72.94,-76.9 45.35,0 72.99,29.54 72.99,76.9 0,96.18 -55.21,132.06 -72.99,132.06zm-1476.43 23.68l-103.89 -55.39c58.79,-21.37 101.92,-63.52 101.92,-123.25 0,-80.46 -60.35,-121.05 -138.02,-121.05 -71.37,0 -139.99,45.74 -139.99,134.08 0,74.54 56.78,119.09 119.08,151.81l200.33 104.52c0,-46.13 -5.51,-72.58 -39.43,-90.7zm-120.98 -64.51l-3.25 -1.75c-37.84,-20.09 -88.73,-50.83 -88.73,-106.84 0,-51.31 33.17,-75.35 72.97,-75.35 44.18,0 70.98,31.15 70.98,85.61 0,37.49 -20.65,70.56 -51.97,98.34zm2204.73 -132.67c0,-54 -37.48,-86.76 -104.52,-86.76 -37.06,0 -64.24,7.88 -80.83,15.8 -9.46,13.38 -13.79,28.78 -19.72,53.18 25.24,-9.85 49.69,-17.7 86.76,-17.7 29.57,0 53.26,12.62 53.26,47.32 0,37.42 -23.28,64.65 -149.88,138 0,7.89 0.41,23.65 3.95,43.41l208.98 0c5.96,-17.76 9.86,-33.51 11.84,-51.26l-177.88 0c88.86,-30.39 168.03,-62.13 168.03,-141.98zm-2056.13 100.54c0,65.49 23.63,96.63 55.2,96.63 38.66,0 69.53,-34.22 98.59,-107.18l0 103.25 63.1 0 0 -216.89c-28.39,-2.37 -54.42,-3.99 -82.83,-3.99 -78.08,0 -134.06,32.36 -134.06,128.17zm88.7 41.44c-16.56,0 -23.65,-22.08 -23.65,-82.84 0,-31.53 15.38,-39.43 59.14,-39.43 11.49,0 20.68,0.1 29.52,0.25 -14.01,42.96 -32.68,122.02 -65,122.02zm869.17 -65.49l0 -21.26c0,-27.63 -1.99,-51.29 -5.91,-78.87l-61.13 0c1.96,27.58 3.93,51.24 3.93,78.87l0 138.02 63.11 0c0,-77.33 24.82,-165.25 90.67,-155.78 0,-13.8 -1.97,-45.35 -5.88,-65.09 -48.08,4.18 -71.64,46.55 -84.79,104.12zm-331.28 24.05c0,16.09 1.55,29.81 4.33,41.44l-231.46 0c-30.79,0 -50.46,-7.13 -50.46,-35.53l0 -78.85 72.9 0c5.96,-17.73 9.87,-33.95 11.84,-51.24l-84.73 0c0.36,-24.34 2.12,-46.06 3.9,-71 -27.59,9.85 -49.26,21.28 -67.04,41.03l0 29.98 -37.46 0c-3.14,21.3 -3.14,37.42 -3.92,51.24l41.38 0 0 82.81c0,57.98 35.12,82.83 83.21,82.83l314.7 0c38.55,0 68.16,-31.61 96.62,-103.14l0 103.14 63.07 0 0 -216.89c-28.37,-2.37 -54.42,-3.99 -82.79,-3.99 -78.08,0 -134.11,32.36 -134.11,128.17zm88.75 41.44c-16.56,0 -23.63,-22.08 -23.63,-82.84 0,-31.53 15.34,-39.43 59.12,-39.43 11.49,0 20.66,0.1 29.48,0.25 -13.97,42.96 -32.68,122.02 -64.96,122.02z"/>
   <path class="fil22" d="M2257.53 2758.29c-8.93,2.25 -18.76,4.37 -29.43,6.39 -10.76,2.01 -24.02,2.99 -39.89,2.99 -15.64,0 -31.46,-2.1 -47.44,-6.34 -15.98,-4.22 -30.37,-11.04 -43.18,-20.43 -12.84,-9.39 -23.36,-21.74 -31.5,-37.02 -8.19,-15.27 -12.24,-34.03 -12.24,-56.13 0,-20.31 3.37,-38.13 10.06,-53.42 6.69,-15.32 16.04,-28.02 27.97,-38.24 11.95,-10.15 26.14,-17.72 42.55,-22.74 16.41,-5.04 34.23,-7.55 53.42,-7.55 12.09,0 23.79,1.16 35.17,3.52 11.42,2.32 22.81,5.16 34.18,8.53l-4.98 50.61c-10.07,-5.61 -20.07,-9.74 -29.99,-12.41 -9.98,-2.68 -20.31,-4.03 -31,-4.03 -11.18,0 -21.21,1.88 -30.14,5.7 -8.94,3.78 -16.58,9.03 -22.97,15.72 -6.39,6.74 -11.29,14.72 -14.76,23.99 -3.47,9.25 -5.14,19.35 -5.14,30.31 0,11.39 1.93,21.66 5.87,30.85 3.86,9.13 9.23,16.88 16.05,23.27 6.82,6.34 15.02,11.2 24.61,14.57 9.6,3.32 20.08,5.02 31.52,5.02 10.25,0 20.44,-1.18 30.47,-3.53 10.07,-2.32 19.3,-5.18 27.8,-8.54l3 48.91z"/>
   <path class="fil22" d="M2482.02 2674.87c0,16.1 -2.48,29.92 -7.39,41.56 -4.92,11.6 -11.85,21.22 -20.9,28.79 -9.07,7.61 -19.9,13.25 -32.51,16.93 -12.62,3.71 -26.55,5.51 -41.74,5.51 -15.17,0 -29.07,-1.8 -41.71,-5.51 -12.6,-3.68 -23.42,-9.32 -32.49,-16.93 -9.05,-7.58 -16,-17.19 -20.91,-28.79 -4.92,-11.64 -7.37,-25.46 -7.37,-41.56l0 -145.07 62.31 0 0 134.71c0,7.82 0.62,15.1 1.84,21.92 1.22,6.84 3.39,12.84 6.36,18.1 3.02,5.25 7.1,9.37 12.23,12.38 5.11,3.03 11.73,4.54 19.74,4.54 8.05,0 14.66,-1.51 19.8,-4.54 5.17,-3.01 9.21,-7.13 12.23,-12.38 3,-5.26 5.14,-11.26 6.37,-18.1 1.2,-6.82 1.84,-14.1 1.84,-21.92l0 -134.71 62.31 0 0 145.07z"/>
   <path class="fil22" d="M2513.17 2529.8l74.38 0c35.97,0 62.45,6.2 79.45,18.6 16.94,12.42 25.46,31.77 25.46,58.14 0,23.67 -8.16,42.16 -24.46,55.44 -16.35,13.3 -39.12,19.94 -68.39,19.94l-24.08 0 0 81.74 -62.34 0 0 -233.85zm62.34 107.88l16.05 0c5.37,0 10.39,-0.52 15.1,-1.49 4.67,-1.04 8.76,-2.82 12.21,-5.37 3.45,-2.54 6.2,-5.93 8.21,-10.07 1.99,-4.12 3.01,-9.19 3.01,-15.22 0,-6.05 -1.02,-11.07 -3.01,-15.07 -2.01,-4.03 -4.76,-7.26 -8.21,-9.73 -3.45,-2.45 -7.55,-4.2 -12.21,-5.17 -4.71,-1.04 -9.73,-1.54 -15.1,-1.54l-16.05 0 0 63.66z"/>
   <polygon class="fil22" points="754.28,2529.79 817.94,2529.79 848.12,2709.4 848.79,2709.4 880.24,2529.79 959.32,2529.79 992.16,2709.4 992.85,2709.4 1023.32,2529.79 1083.99,2529.79 1031.68,2763.65 951.63,2763.65 918.47,2584.09 917.78,2584.09 886.97,2763.65 806.21,2763.65 "/>
   <path class="fil22" d="M1086.28 2646.73c0,-18.76 2.53,-35.62 7.56,-50.59 5,-14.96 12.45,-27.65 22.28,-38.02 9.83,-10.39 22.07,-18.4 36.66,-23.96 14.64,-5.59 31.56,-8.4 50.8,-8.4 19.18,0 36.11,2.81 50.75,8.4 14.62,5.55 26.86,13.56 36.68,23.96 9.83,10.37 17.25,23.06 22.3,38.02 5.02,14.96 7.51,31.83 7.51,50.59 0,18.53 -2.49,35.29 -7.51,50.27 -5.04,14.97 -12.56,27.7 -22.47,38.18 -9.94,10.5 -22.2,18.56 -36.86,24.11 -14.59,5.61 -31.46,8.4 -50.4,8.4 -19.24,0 -36.08,-2.79 -50.63,-8.4 -14.46,-5.55 -26.72,-13.61 -36.66,-24.11 -9.94,-10.48 -17.45,-23.21 -22.45,-38.18 -5.02,-14.98 -7.56,-31.74 -7.56,-50.27zm64.36 0c0,9.63 0.99,18.94 3.03,27.99 1.99,9.03 5.09,17.01 9.35,23.93 4.24,6.93 9.72,12.45 16.45,16.58 6.69,4.14 14.7,6.21 24.11,6.21 9.35,0 17.45,-2.08 24.14,-6.21 6.69,-4.14 12.15,-9.66 16.37,-16.58 4.26,-6.93 7.4,-14.9 9.42,-23.93 1.99,-9.05 3.01,-18.36 3.01,-27.99 0,-10.02 -1.02,-19.6 -3.01,-28.62 -2.01,-9.04 -5.15,-16.98 -9.42,-23.84 -4.22,-6.77 -9.68,-12.2 -16.37,-16.23 -6.69,-4.03 -14.79,-5.99 -24.14,-5.99 -9.4,0 -17.42,1.96 -24.11,5.99 -6.73,4.03 -12.21,9.46 -16.45,16.23 -4.27,6.85 -7.36,14.8 -9.35,23.84 -2.04,9.03 -3.03,18.6 -3.03,28.62z"/>
   <path class="fil22" d="M1344.31 2529.8l111.21 0c10.24,0 20.01,1.18 29.14,3.49 9.16,2.37 17.21,6.03 24.14,10.95 6.89,4.9 12.31,11.02 16.24,18.37 3.91,7.4 5.85,16.12 5.85,26.15 0,15.63 -3.68,28.48 -11.08,38.56 -7.33,10.02 -18.63,16.83 -33.81,20.43l0 0.65c4.91,1.32 8.88,3.44 11.91,6.39 3,2.89 5.62,6.51 7.86,10.87 2.25,4.37 4.29,9.4 6.19,15.08 1.93,5.71 4.3,12.13 7.25,19.3l22.74 63.62 -64.96 0 -13.44 -42.2c-3.14,-10.07 -6.09,-18.33 -8.86,-24.81 -2.81,-6.45 -5.85,-11.59 -9.05,-15.39 -3.25,-3.82 -6.94,-6.43 -11.1,-7.87 -4.12,-1.47 -9.06,-2.19 -14.87,-2.19l-13.07 0 0 92.46 -62.3 0 0 -233.85zm62.3 97.17l16.39 0c4.94,0 10.13,-0.18 15.58,-0.52 5.5,-0.33 10.41,-1.38 14.78,-3.16 4.34,-1.82 7.98,-4.48 10.87,-8.06 2.91,-3.59 4.34,-8.7 4.34,-15.43 0,-5.35 -1.26,-9.75 -3.84,-13.21 -2.56,-3.46 -5.89,-6.11 -10.02,-7.87 -4.15,-1.79 -8.94,-3 -14.44,-3.69 -5.46,-0.69 -11.19,-1.02 -17.26,-1.02l-16.39 0 0 52.95z"/>
   <polygon class="fil22" points="1568.77,2529.79 1631.07,2529.79 1631.07,2717.43 1727.58,2717.43 1727.58,2763.65 1568.77,2763.65 "/>
   <path class="fil22" d="M1749.34 2529.79l85.08 0c20.35,0 39.01,1.82 55.95,5.36 17.01,3.57 31.54,9.78 43.76,18.62 12.13,8.81 21.66,20.72 28.46,35.68 6.82,14.94 10.24,33.72 10.24,56.28 0,21.9 -3.49,40.33 -10.4,55.28 -6.93,14.98 -16.52,27.07 -28.82,36.35 -12.27,9.25 -26.9,15.95 -43.89,20.08 -16.98,4.14 -35.4,6.21 -55.29,6.21l-85.08 0 0 -233.86zm62.34 187.63l24.11 0c23.45,0 41.43,-5.91 53.93,-17.78 12.5,-11.81 18.78,-29.43 18.78,-52.92 0,-23.45 -6.41,-41.08 -19.13,-52.92 -12.73,-11.85 -30.57,-17.78 -53.58,-17.78l-24.11 0 0 141.4z"/>
   <polygon class="fil23" points="-0,2529.79 -0,2763.65 72.78,2763.65 72.78,2679.2 125.18,2679.2 143.82,2628.09 72.78,2628.09 72.78,2580.72 161.01,2580.72 179.57,2529.79 "/>
   <polygon class="fil23" points="201.87,2763.64 274.64,2763.64 274.64,2529.78 201.87,2529.78 "/>
   <polygon class="fil23" points="324.72,2529.79 324.72,2763.65 397.54,2763.65 397.54,2679.2 449.9,2679.2 468.54,2628.09 397.54,2628.09 397.54,2580.72 485.73,2580.72 504.32,2529.79 "/>
   <path class="fil23" d="M712.72 2763.67l-73.51 0 -9.49 -31.43 -82.27 0 -9.1 31.43 -71.65 0 85.21 -233.86 75.67 0 85.16 233.86zm-95.04 -76.37l-29.12 -97.41 -28.09 97.41 57.21 0z"/>
  </g>
 </g>
</svg>
